<?xml version="1.0" encoding="utf-8" standalone="no"?>
<!DOCTYPE svg PUBLIC "-//W3C//DTD SVG 1.1//EN"
  "http://www.w3.org/Graphics/SVG/1.1/DTD/svg11.dtd">
<!-- Created with matplotlib (https://matplotlib.org/) -->
<svg height="720pt" version="1.1" viewBox="0 0 864 720" width="864pt" xmlns="http://www.w3.org/2000/svg" xmlns:xlink="http://www.w3.org/1999/xlink">
 <defs>
  <style type="text/css">
*{stroke-linecap:butt;stroke-linejoin:round;}
  </style>
 </defs>
 <g id="figure_1">
  <g id="patch_1">
   <path d="M 0 720 
L 864 720 
L 864 0 
L 0 0 
z
" style="fill:#ffffff;"/>
  </g>
  <g id="axes_1">
   <g id="patch_2">
    <path d="M 108 640.8 
L 777.6 640.8 
L 777.6 86.4 
L 108 86.4 
z
" style="fill:#ffffff;"/>
   </g>
   <g id="matplotlib.axis_1">
    <g id="xtick_1">
     <g id="line2d_1">
      <defs>
       <path d="M 0 0 
L 0 3.5 
" id="mb9690a1702" style="stroke:#000000;stroke-width:0.8;"/>
      </defs>
      <g>
       <use style="stroke:#000000;stroke-width:0.8;" x="108" xlink:href="#mb9690a1702" y="640.8"/>
      </g>
     </g>
     <g id="text_1">
      <!-- 0.60 -->
      <defs>
       <path d="M 24.03125 36.375 
Q 24.03125 38.96875 25.78125 40.71875 
Q 27.546875 42.484375 30.078125 42.484375 
Q 32.671875 42.484375 34.421875 40.71875 
Q 36.1875 38.96875 36.1875 36.375 
Q 36.1875 33.84375 34.421875 32.078125 
Q 32.671875 30.328125 30.078125 30.328125 
Q 27.546875 30.328125 25.78125 32.0625 
Q 24.03125 33.796875 24.03125 36.375 
z
M 30.078125 62.015625 
Q 25.09375 62.015625 22.796875 55.90625 
Q 20.515625 49.8125 20.515625 36.375 
Q 20.515625 23 22.796875 16.890625 
Q 25.09375 10.796875 30.078125 10.796875 
Q 35.109375 10.796875 37.40625 16.890625 
Q 39.703125 23 39.703125 36.375 
Q 39.703125 49.8125 37.40625 55.90625 
Q 35.109375 62.015625 30.078125 62.015625 
z
M 6 36.375 
Q 6 55.328125 12 64.765625 
Q 18.015625 74.21875 30.078125 74.21875 
Q 42.1875 74.21875 48.1875 64.796875 
Q 54.203125 55.375 54.203125 36.375 
Q 54.203125 17.4375 48.1875 8 
Q 42.1875 -1.421875 30.078125 -1.421875 
Q 18.015625 -1.421875 12 8.03125 
Q 6 17.484375 6 36.375 
z
" id="DejaVuSansMono-Bold-48"/>
       <path d="M 21.921875 17.921875 
L 38.1875 17.921875 
L 38.1875 0 
L 21.921875 0 
z
" id="DejaVuSansMono-Bold-46"/>
       <path d="M 31.390625 36.53125 
Q 26.703125 36.53125 24.234375 33.125 
Q 21.78125 29.734375 21.78125 23.296875 
Q 21.78125 16.890625 24.234375 13.5 
Q 26.703125 10.109375 31.390625 10.109375 
Q 36.078125 10.109375 38.59375 13.5 
Q 41.109375 16.890625 41.109375 23.296875 
Q 41.109375 29.6875 38.59375 33.109375 
Q 36.078125 36.53125 31.390625 36.53125 
z
M 50.296875 71.1875 
L 50.296875 58.109375 
Q 46.4375 60.296875 42.890625 61.390625 
Q 39.359375 62.5 36.078125 62.5 
Q 28.265625 62.5 24.1875 57.25 
Q 20.125 52 19.921875 41.75 
Q 22.21875 44.921875 25.78125 46.5 
Q 29.34375 48.09375 34.1875 48.09375 
Q 44.046875 48.09375 49.40625 41.859375 
Q 54.78125 35.640625 54.78125 24.21875 
Q 54.78125 11.96875 48.75 5.21875 
Q 42.71875 -1.515625 31.78125 -1.515625 
Q 18.453125 -1.515625 12.421875 7.421875 
Q 6.390625 16.359375 6.390625 36.28125 
Q 6.390625 55.21875 13.765625 64.671875 
Q 21.140625 74.125 35.890625 74.125 
Q 39.3125 74.125 42.9375 73.390625 
Q 46.578125 72.65625 50.296875 71.1875 
z
" id="DejaVuSansMono-Bold-54"/>
      </defs>
      <g transform="translate(93.55125 656.918125)scale(0.12 -0.12)">
       <use xlink:href="#DejaVuSansMono-Bold-48"/>
       <use x="60.205078" xlink:href="#DejaVuSansMono-Bold-46"/>
       <use x="120.410156" xlink:href="#DejaVuSansMono-Bold-54"/>
       <use x="180.615234" xlink:href="#DejaVuSansMono-Bold-48"/>
      </g>
     </g>
    </g>
    <g id="xtick_2">
     <g id="line2d_2">
      <g>
       <use style="stroke:#000000;stroke-width:0.8;" x="271.317073" xlink:href="#mb9690a1702" y="640.8"/>
      </g>
     </g>
     <g id="text_2">
      <!-- 0.70 -->
      <defs>
       <path d="M 6.59375 72.90625 
L 52.6875 72.90625 
L 52.6875 62.703125 
L 27.984375 0 
L 13.28125 0 
L 37.015625 60.203125 
L 6.59375 60.203125 
z
" id="DejaVuSansMono-Bold-55"/>
      </defs>
      <g transform="translate(256.868323 656.918125)scale(0.12 -0.12)">
       <use xlink:href="#DejaVuSansMono-Bold-48"/>
       <use x="60.205078" xlink:href="#DejaVuSansMono-Bold-46"/>
       <use x="120.410156" xlink:href="#DejaVuSansMono-Bold-55"/>
       <use x="180.615234" xlink:href="#DejaVuSansMono-Bold-48"/>
      </g>
     </g>
    </g>
    <g id="xtick_3">
     <g id="line2d_3">
      <g>
       <use style="stroke:#000000;stroke-width:0.8;" x="434.634146" xlink:href="#mb9690a1702" y="640.8"/>
      </g>
     </g>
     <g id="text_3">
      <!-- 0.80 -->
      <defs>
       <path d="M 30.078125 32.515625 
Q 25.25 32.515625 22.265625 29.46875 
Q 19.28125 26.421875 19.28125 21.390625 
Q 19.28125 16.359375 22.265625 13.28125 
Q 25.25 10.203125 30.078125 10.203125 
Q 34.90625 10.203125 37.90625 13.328125 
Q 40.921875 16.453125 40.921875 21.390625 
Q 40.921875 26.421875 37.9375 29.46875 
Q 34.96875 32.515625 30.078125 32.515625 
z
M 19.390625 38.625 
Q 13.875 40.53125 10.984375 44.609375 
Q 8.109375 48.6875 8.109375 54.59375 
Q 8.109375 63.671875 14.015625 68.9375 
Q 19.921875 74.21875 30.078125 74.21875 
Q 40.28125 74.21875 46.1875 68.9375 
Q 52.09375 63.671875 52.09375 54.59375 
Q 52.09375 48.734375 49.265625 44.65625 
Q 46.4375 40.578125 41.015625 38.625 
Q 47.078125 36.765625 50.484375 31.984375 
Q 53.90625 27.203125 53.90625 20.515625 
Q 53.90625 10.015625 47.703125 4.296875 
Q 41.5 -1.421875 30.078125 -1.421875 
Q 18.703125 -1.421875 12.5 4.296875 
Q 6.296875 10.015625 6.296875 20.515625 
Q 6.296875 27.25 9.765625 32.03125 
Q 13.234375 36.8125 19.390625 38.625 
z
M 20.90625 53.421875 
Q 20.90625 49.125 23.359375 46.609375 
Q 25.828125 44.09375 30.078125 44.09375 
Q 34.375 44.09375 36.84375 46.609375 
Q 39.3125 49.125 39.3125 53.421875 
Q 39.3125 57.671875 36.84375 60.125 
Q 34.375 62.59375 30.078125 62.59375 
Q 25.875 62.59375 23.390625 60.109375 
Q 20.90625 57.625 20.90625 53.421875 
z
" id="DejaVuSansMono-Bold-56"/>
      </defs>
      <g transform="translate(420.185396 656.918125)scale(0.12 -0.12)">
       <use xlink:href="#DejaVuSansMono-Bold-48"/>
       <use x="60.205078" xlink:href="#DejaVuSansMono-Bold-46"/>
       <use x="120.410156" xlink:href="#DejaVuSansMono-Bold-56"/>
       <use x="180.615234" xlink:href="#DejaVuSansMono-Bold-48"/>
      </g>
     </g>
    </g>
    <g id="xtick_4">
     <g id="line2d_4">
      <g>
       <use style="stroke:#000000;stroke-width:0.8;" x="434.634146" xlink:href="#mb9690a1702" y="640.8"/>
      </g>
     </g>
     <g id="text_4">
      <!-- 0.80 -->
      <g transform="translate(420.185396 656.918125)scale(0.12 -0.12)">
       <use xlink:href="#DejaVuSansMono-Bold-48"/>
       <use x="60.205078" xlink:href="#DejaVuSansMono-Bold-46"/>
       <use x="120.410156" xlink:href="#DejaVuSansMono-Bold-56"/>
       <use x="180.615234" xlink:href="#DejaVuSansMono-Bold-48"/>
      </g>
     </g>
    </g>
    <g id="xtick_5">
     <g id="line2d_5">
      <g>
       <use style="stroke:#000000;stroke-width:0.8;" x="516.292683" xlink:href="#mb9690a1702" y="640.8"/>
      </g>
     </g>
     <g id="text_5">
      <!-- 0.85 -->
      <defs>
       <path d="M 9.421875 72.90625 
L 49.03125 72.90625 
L 49.03125 60.203125 
L 21.09375 60.203125 
L 21.09375 46.6875 
Q 22.859375 47.359375 24.859375 47.671875 
Q 26.859375 48 29.109375 48 
Q 39.9375 48 46.671875 41.15625 
Q 53.421875 34.328125 53.421875 23.390625 
Q 53.421875 11.921875 46.109375 5.25 
Q 38.8125 -1.421875 26.21875 -1.421875 
Q 21.53125 -1.421875 16.75 -0.640625 
Q 11.96875 0.140625 6.984375 1.703125 
L 6.984375 14.703125 
Q 11.03125 12.703125 15.296875 11.6875 
Q 19.578125 10.6875 23.875 10.6875 
Q 31.5 10.6875 35.453125 13.9375 
Q 39.40625 17.1875 39.40625 23.390625 
Q 39.40625 29.109375 35.46875 32.546875 
Q 31.546875 35.984375 25 35.984375 
Q 21.140625 35.984375 17.25 35.03125 
Q 13.375 34.078125 9.421875 32.171875 
z
" id="DejaVuSansMono-Bold-53"/>
      </defs>
      <g transform="translate(501.843933 656.918125)scale(0.12 -0.12)">
       <use xlink:href="#DejaVuSansMono-Bold-48"/>
       <use x="60.205078" xlink:href="#DejaVuSansMono-Bold-46"/>
       <use x="120.410156" xlink:href="#DejaVuSansMono-Bold-56"/>
       <use x="180.615234" xlink:href="#DejaVuSansMono-Bold-53"/>
      </g>
     </g>
    </g>
    <g id="xtick_6">
     <g id="line2d_6">
      <g>
       <use style="stroke:#000000;stroke-width:0.8;" x="597.95122" xlink:href="#mb9690a1702" y="640.8"/>
      </g>
     </g>
     <g id="text_6">
      <!-- 0.90 -->
      <defs>
       <path d="M 9.90625 0.984375 
L 9.90625 14.109375 
Q 13.765625 11.859375 17.296875 10.78125 
Q 20.84375 9.71875 24.125 9.71875 
Q 31.890625 9.71875 35.96875 14.921875 
Q 40.046875 20.125 40.28125 30.46875 
Q 37.984375 27.296875 34.421875 25.703125 
Q 30.859375 24.125 25.984375 24.125 
Q 16.15625 24.125 10.78125 30.34375 
Q 5.421875 36.578125 5.421875 48 
Q 5.421875 60.203125 11.421875 66.890625 
Q 17.4375 73.578125 28.421875 73.578125 
Q 41.75 73.578125 47.78125 64.671875 
Q 53.8125 55.765625 53.8125 35.890625 
Q 53.8125 17 46.4375 7.546875 
Q 39.0625 -1.90625 24.3125 -1.90625 
Q 20.90625 -1.90625 17.265625 -1.171875 
Q 13.625 -0.4375 9.90625 0.984375 
z
M 28.8125 36.1875 
Q 33.453125 36.1875 35.90625 39.578125 
Q 38.375 42.96875 38.375 49.421875 
Q 38.375 55.8125 35.90625 59.203125 
Q 33.453125 62.59375 28.8125 62.59375 
Q 24.125 62.59375 21.609375 59.203125 
Q 19.09375 55.8125 19.09375 49.421875 
Q 19.09375 43.015625 21.609375 39.59375 
Q 24.125 36.1875 28.8125 36.1875 
z
" id="DejaVuSansMono-Bold-57"/>
      </defs>
      <g transform="translate(583.50247 656.918125)scale(0.12 -0.12)">
       <use xlink:href="#DejaVuSansMono-Bold-48"/>
       <use x="60.205078" xlink:href="#DejaVuSansMono-Bold-46"/>
       <use x="120.410156" xlink:href="#DejaVuSansMono-Bold-57"/>
       <use x="180.615234" xlink:href="#DejaVuSansMono-Bold-48"/>
      </g>
     </g>
    </g>
    <g id="xtick_7">
     <g id="line2d_7">
      <g>
       <use style="stroke:#000000;stroke-width:0.8;" x="679.609756" xlink:href="#mb9690a1702" y="640.8"/>
      </g>
     </g>
     <g id="text_7">
      <!-- 0.95 -->
      <g transform="translate(665.161006 656.918125)scale(0.12 -0.12)">
       <use xlink:href="#DejaVuSansMono-Bold-48"/>
       <use x="60.205078" xlink:href="#DejaVuSansMono-Bold-46"/>
       <use x="120.410156" xlink:href="#DejaVuSansMono-Bold-57"/>
       <use x="180.615234" xlink:href="#DejaVuSansMono-Bold-53"/>
      </g>
     </g>
    </g>
    <g id="xtick_8">
     <g id="line2d_8">
      <g>
       <use style="stroke:#000000;stroke-width:0.8;" x="761.268293" xlink:href="#mb9690a1702" y="640.8"/>
      </g>
     </g>
     <g id="text_8">
      <!-- 1.00 -->
      <defs>
       <path d="M 9.1875 12.703125 
L 25.296875 12.703125 
L 25.296875 60.015625 
L 10.296875 56.296875 
L 10.296875 69.28125 
L 25.390625 72.90625 
L 39.3125 72.90625 
L 39.3125 12.703125 
L 55.421875 12.703125 
L 55.421875 0 
L 9.1875 0 
z
" id="DejaVuSansMono-Bold-49"/>
      </defs>
      <g transform="translate(746.819543 656.918125)scale(0.12 -0.12)">
       <use xlink:href="#DejaVuSansMono-Bold-49"/>
       <use x="60.205078" xlink:href="#DejaVuSansMono-Bold-46"/>
       <use x="120.410156" xlink:href="#DejaVuSansMono-Bold-48"/>
       <use x="180.615234" xlink:href="#DejaVuSansMono-Bold-48"/>
      </g>
     </g>
    </g>
    <g id="text_9">
     <!-- $\delta$ value -->
     <defs>
      <path d="M 61.140625 61.71875 
Q 55.8125 65.140625 40.234375 65.140625 
Q 31.9375 65.140625 31 60.359375 
Q 30.953125 60.015625 30.953125 59.71875 
Q 30.953125 55.671875 41.15625 54.109375 
Q 63.09375 50.6875 63.09375 33.734375 
Q 63.09375 30.671875 62.40625 27.09375 
Q 59.8125 13.875 50.34375 6.25 
Q 40.828125 -1.421875 26.859375 -1.421875 
Q 12.84375 -1.421875 6.296875 6.25 
Q 1.5625 11.71875 1.5625 20.125 
Q 1.5625 35.203125 13.8125 45.3125 
Q 16.796875 47.75 20.21875 49.3125 
Q 14.984375 52.4375 14.984375 58.15625 
Q 14.984375 59.46875 15.28125 60.9375 
Q 18.359375 76.765625 44.140625 76.765625 
Q 57.078125 76.765625 63.375 73.34375 
z
M 31.296875 42.96875 
Q 28.515625 41.890625 25.921875 39.15625 
Q 21.875 34.90625 20.40625 27.25 
Q 19.828125 24.265625 19.828125 21.09375 
Q 19.828125 17.921875 21.234375 15.28125 
Q 23.640625 10.984375 29.15625 10.984375 
Q 34.71875 10.984375 38.765625 15.328125 
Q 42.875 19.734375 44.28125 27.046875 
Q 44.78125 29.5 44.78125 32.5625 
Q 44.78125 35.59375 42.921875 37.984375 
Q 40.1875 41.703125 35.453125 42.234375 
Q 33.25 42.484375 31.296875 42.96875 
z
" id="DejaVuSans-BoldOblique-948"/>
      <path id="DejaVuSansMono-Bold-32"/>
      <path d="M 56.296875 54.6875 
L 38.921875 0 
L 21.296875 0 
L 3.90625 54.6875 
L 18.40625 54.6875 
L 30.078125 12.015625 
L 41.796875 54.6875 
z
" id="DejaVuSansMono-Bold-118"/>
      <path d="M 34.1875 25.6875 
Q 26.171875 25.6875 23 23.625 
Q 19.828125 21.578125 19.828125 16.609375 
Q 19.828125 12.890625 22.015625 10.6875 
Q 24.21875 8.5 27.984375 8.5 
Q 33.640625 8.5 36.765625 12.765625 
Q 39.890625 17.046875 39.890625 24.703125 
L 39.890625 25.6875 
z
M 54.109375 31.203125 
L 54.109375 0 
L 39.890625 0 
L 39.890625 6.109375 
Q 37.3125 2.484375 33.25 0.53125 
Q 29.203125 -1.421875 24.3125 -1.421875 
Q 14.984375 -1.421875 9.78125 3.515625 
Q 4.59375 8.453125 4.59375 17.28125 
Q 4.59375 26.859375 10.796875 31.421875 
Q 17 35.984375 29.984375 35.984375 
L 39.890625 35.984375 
L 39.890625 38.375 
Q 39.890625 41.84375 37.375 43.625 
Q 34.859375 45.40625 29.984375 45.40625 
Q 24.859375 45.40625 20.046875 44.109375 
Q 15.234375 42.828125 10.015625 39.984375 
L 10.015625 52.203125 
Q 14.75 54.15625 19.625 55.078125 
Q 24.515625 56 29.984375 56 
Q 43.3125 56 48.703125 50.578125 
Q 54.109375 45.171875 54.109375 31.203125 
z
" id="DejaVuSansMono-Bold-97"/>
      <path d="M 18.890625 22.796875 
L 18.890625 64.984375 
L 4.390625 64.984375 
L 4.390625 75.984375 
L 33.203125 75.984375 
L 33.203125 22.796875 
Q 33.203125 16.359375 35.203125 13.671875 
Q 37.203125 10.984375 42 10.984375 
L 53.421875 10.984375 
L 53.421875 0 
L 37.984375 0 
Q 27.78125 0 23.328125 5.265625 
Q 18.890625 10.546875 18.890625 22.796875 
z
" id="DejaVuSansMono-Bold-108"/>
      <path d="M 7.8125 19.09375 
L 7.8125 54.6875 
L 22.125 54.6875 
L 22.125 21.296875 
Q 22.125 15.375 23.78125 12.828125 
Q 25.4375 10.296875 29.296875 10.296875 
Q 33.15625 10.296875 35.328125 13.71875 
Q 37.5 17.140625 37.5 23.296875 
L 37.5 54.6875 
L 51.8125 54.6875 
L 51.8125 0 
L 37.5 0 
L 37.5 8.109375 
Q 35.984375 3.5625 32.34375 1.0625 
Q 28.71875 -1.421875 23.578125 -1.421875 
Q 15.765625 -1.421875 11.78125 3.75 
Q 7.8125 8.9375 7.8125 19.09375 
z
" id="DejaVuSansMono-Bold-117"/>
      <path d="M 53.8125 2.6875 
Q 48.828125 0.640625 43.65625 -0.390625 
Q 38.484375 -1.421875 32.71875 -1.421875 
Q 19 -1.421875 11.75 5.921875 
Q 4.5 13.28125 4.5 27.09375 
Q 4.5 40.484375 11.46875 48.234375 
Q 18.453125 56 30.515625 56 
Q 42.671875 56 49.390625 48.796875 
Q 56.109375 41.609375 56.109375 28.515625 
L 56.109375 22.703125 
L 19.046875 22.703125 
Q 19.09375 16.265625 22.84375 13.078125 
Q 26.609375 9.90625 34.078125 9.90625 
Q 39.015625 9.90625 43.796875 11.328125 
Q 48.578125 12.75 53.8125 15.828125 
z
M 41.703125 33.453125 
Q 41.609375 39.109375 38.796875 42.015625 
Q 35.984375 44.921875 30.515625 44.921875 
Q 25.59375 44.921875 22.65625 41.921875 
Q 19.734375 38.921875 19.1875 33.40625 
z
" id="DejaVuSansMono-Bold-101"/>
     </defs>
     <g transform="translate(417 672.531875)scale(0.12 -0.12)">
      <use transform="translate(0 0.234375)" xlink:href="#DejaVuSans-BoldOblique-948"/>
      <use transform="translate(68.701172 0.234375)" xlink:href="#DejaVuSansMono-Bold-32"/>
      <use transform="translate(128.90625 0.234375)" xlink:href="#DejaVuSansMono-Bold-118"/>
      <use transform="translate(189.111328 0.234375)" xlink:href="#DejaVuSansMono-Bold-97"/>
      <use transform="translate(249.316406 0.234375)" xlink:href="#DejaVuSansMono-Bold-108"/>
      <use transform="translate(309.521484 0.234375)" xlink:href="#DejaVuSansMono-Bold-117"/>
      <use transform="translate(369.726562 0.234375)" xlink:href="#DejaVuSansMono-Bold-101"/>
     </g>
    </g>
   </g>
   <g id="matplotlib.axis_2">
    <g id="ytick_1">
     <g id="line2d_9">
      <defs>
       <path d="M 0 0 
L -3.5 0 
" id="mbf897f1f0a" style="stroke:#000000;stroke-width:0.8;"/>
      </defs>
      <g>
       <use style="stroke:#000000;stroke-width:0.8;" x="108" xlink:href="#mbf897f1f0a" y="616.695652"/>
      </g>
     </g>
     <g id="text_10">
      <!-- 0.00 -->
      <g transform="translate(72.1025 621.254715)scale(0.12 -0.12)">
       <use xlink:href="#DejaVuSansMono-Bold-48"/>
       <use x="60.205078" xlink:href="#DejaVuSansMono-Bold-46"/>
       <use x="120.410156" xlink:href="#DejaVuSansMono-Bold-48"/>
       <use x="180.615234" xlink:href="#DejaVuSansMono-Bold-48"/>
      </g>
     </g>
    </g>
    <g id="ytick_2">
     <g id="line2d_10">
      <g>
       <use style="stroke:#000000;stroke-width:0.8;" x="108" xlink:href="#mbf897f1f0a" y="568.486957"/>
      </g>
     </g>
     <g id="text_11">
      <!-- 0.10 -->
      <g transform="translate(72.1025 573.046019)scale(0.12 -0.12)">
       <use xlink:href="#DejaVuSansMono-Bold-48"/>
       <use x="60.205078" xlink:href="#DejaVuSansMono-Bold-46"/>
       <use x="120.410156" xlink:href="#DejaVuSansMono-Bold-49"/>
       <use x="180.615234" xlink:href="#DejaVuSansMono-Bold-48"/>
      </g>
     </g>
    </g>
    <g id="ytick_3">
     <g id="line2d_11">
      <g>
       <use style="stroke:#000000;stroke-width:0.8;" x="108" xlink:href="#mbf897f1f0a" y="520.278261"/>
      </g>
     </g>
     <g id="text_12">
      <!-- 0.20 -->
      <defs>
       <path d="M 21.1875 12.703125 
L 51.90625 12.703125 
L 51.90625 0 
L 5.609375 0 
L 5.609375 12.3125 
L 13.421875 20.609375 
Q 27.34375 35.40625 30.328125 38.8125 
Q 33.984375 43.015625 35.59375 46.265625 
Q 37.203125 49.515625 37.203125 52.6875 
Q 37.203125 57.5625 34.25 60.21875 
Q 31.296875 62.890625 25.875 62.890625 
Q 22.015625 62.890625 17.203125 61.34375 
Q 12.40625 59.8125 7.171875 56.890625 
L 7.171875 70.3125 
Q 12.40625 72.21875 17.40625 73.21875 
Q 22.40625 74.21875 27 74.21875 
Q 38.578125 74.21875 45.1875 68.8125 
Q 51.8125 63.421875 51.8125 54.109375 
Q 51.8125 49.8125 50.359375 46.046875 
Q 48.921875 42.28125 45.40625 37.703125 
Q 42.828125 34.375 31.203125 22.75 
Q 24.90625 16.453125 21.1875 12.703125 
z
" id="DejaVuSansMono-Bold-50"/>
      </defs>
      <g transform="translate(72.1025 524.837323)scale(0.12 -0.12)">
       <use xlink:href="#DejaVuSansMono-Bold-48"/>
       <use x="60.205078" xlink:href="#DejaVuSansMono-Bold-46"/>
       <use x="120.410156" xlink:href="#DejaVuSansMono-Bold-50"/>
       <use x="180.615234" xlink:href="#DejaVuSansMono-Bold-48"/>
      </g>
     </g>
    </g>
    <g id="ytick_4">
     <g id="line2d_12">
      <g>
       <use style="stroke:#000000;stroke-width:0.8;" x="108" xlink:href="#mbf897f1f0a" y="472.069565"/>
      </g>
     </g>
     <g id="text_13">
      <!-- 0.30 -->
      <defs>
       <path d="M 26.8125 32.625 
L 19.09375 32.625 
L 19.09375 45.3125 
L 26.8125 45.3125 
Q 32.171875 45.3125 35.125 47.4375 
Q 38.09375 49.5625 38.09375 53.421875 
Q 38.09375 57.46875 35.125 59.734375 
Q 32.171875 62.015625 26.8125 62.015625 
Q 22.703125 62.015625 18.015625 60.984375 
Q 13.328125 59.96875 8.296875 58.015625 
L 8.296875 71.09375 
Q 13.328125 72.609375 18.203125 73.40625 
Q 23.09375 74.21875 27.59375 74.21875 
Q 39.109375 74.21875 45.546875 69.1875 
Q 52 64.15625 52 55.328125 
Q 52 48.828125 48.28125 44.703125 
Q 44.578125 40.578125 37.703125 39.3125 
Q 45.515625 37.9375 49.609375 33.078125 
Q 53.71875 28.21875 53.71875 20.3125 
Q 53.71875 9.71875 46.921875 4.140625 
Q 40.140625 -1.421875 27.203125 -1.421875 
Q 21.6875 -1.421875 16.328125 -0.484375 
Q 10.984375 0.4375 6.109375 2.203125 
L 6.109375 15.578125 
Q 10.6875 13.28125 16.015625 12.078125 
Q 21.34375 10.890625 27.203125 10.890625 
Q 33.0625 10.890625 36.46875 13.59375 
Q 39.890625 16.3125 39.890625 20.90625 
Q 39.890625 26.515625 36.46875 29.5625 
Q 33.0625 32.625 26.8125 32.625 
z
" id="DejaVuSansMono-Bold-51"/>
      </defs>
      <g transform="translate(72.1025 476.628628)scale(0.12 -0.12)">
       <use xlink:href="#DejaVuSansMono-Bold-48"/>
       <use x="60.205078" xlink:href="#DejaVuSansMono-Bold-46"/>
       <use x="120.410156" xlink:href="#DejaVuSansMono-Bold-51"/>
       <use x="180.615234" xlink:href="#DejaVuSansMono-Bold-48"/>
      </g>
     </g>
    </g>
    <g id="ytick_5">
     <g id="line2d_13">
      <g>
       <use style="stroke:#000000;stroke-width:0.8;" x="108" xlink:href="#mbf897f1f0a" y="423.86087"/>
      </g>
     </g>
     <g id="text_14">
      <!-- 0.40 -->
      <defs>
       <path d="M 33.890625 56.890625 
L 15.484375 28.078125 
L 33.890625 28.078125 
z
M 32.625 72.90625 
L 47.703125 72.90625 
L 47.703125 28.078125 
L 55.71875 28.078125 
L 55.71875 15.71875 
L 47.703125 15.71875 
L 47.703125 0 
L 33.890625 0 
L 33.890625 15.71875 
L 4.984375 15.71875 
L 4.984375 29.6875 
z
" id="DejaVuSansMono-Bold-52"/>
      </defs>
      <g transform="translate(72.1025 428.419932)scale(0.12 -0.12)">
       <use xlink:href="#DejaVuSansMono-Bold-48"/>
       <use x="60.205078" xlink:href="#DejaVuSansMono-Bold-46"/>
       <use x="120.410156" xlink:href="#DejaVuSansMono-Bold-52"/>
       <use x="180.615234" xlink:href="#DejaVuSansMono-Bold-48"/>
      </g>
     </g>
    </g>
    <g id="ytick_6">
     <g id="line2d_14">
      <g>
       <use style="stroke:#000000;stroke-width:0.8;" x="108" xlink:href="#mbf897f1f0a" y="375.652174"/>
      </g>
     </g>
     <g id="text_15">
      <!-- 0.50 -->
      <g transform="translate(72.1025 380.211236)scale(0.12 -0.12)">
       <use xlink:href="#DejaVuSansMono-Bold-48"/>
       <use x="60.205078" xlink:href="#DejaVuSansMono-Bold-46"/>
       <use x="120.410156" xlink:href="#DejaVuSansMono-Bold-53"/>
       <use x="180.615234" xlink:href="#DejaVuSansMono-Bold-48"/>
      </g>
     </g>
    </g>
    <g id="ytick_7">
     <g id="line2d_15">
      <g>
       <use style="stroke:#000000;stroke-width:0.8;" x="108" xlink:href="#mbf897f1f0a" y="327.443478"/>
      </g>
     </g>
     <g id="text_16">
      <!-- 0.60 -->
      <g transform="translate(72.1025 332.002541)scale(0.12 -0.12)">
       <use xlink:href="#DejaVuSansMono-Bold-48"/>
       <use x="60.205078" xlink:href="#DejaVuSansMono-Bold-46"/>
       <use x="120.410156" xlink:href="#DejaVuSansMono-Bold-54"/>
       <use x="180.615234" xlink:href="#DejaVuSansMono-Bold-48"/>
      </g>
     </g>
    </g>
    <g id="ytick_8">
     <g id="line2d_16">
      <g>
       <use style="stroke:#000000;stroke-width:0.8;" x="108" xlink:href="#mbf897f1f0a" y="279.234783"/>
      </g>
     </g>
     <g id="text_17">
      <!-- 0.70 -->
      <g transform="translate(72.1025 283.793845)scale(0.12 -0.12)">
       <use xlink:href="#DejaVuSansMono-Bold-48"/>
       <use x="60.205078" xlink:href="#DejaVuSansMono-Bold-46"/>
       <use x="120.410156" xlink:href="#DejaVuSansMono-Bold-55"/>
       <use x="180.615234" xlink:href="#DejaVuSansMono-Bold-48"/>
      </g>
     </g>
    </g>
    <g id="ytick_9">
     <g id="line2d_17">
      <g>
       <use style="stroke:#000000;stroke-width:0.8;" x="108" xlink:href="#mbf897f1f0a" y="231.026087"/>
      </g>
     </g>
     <g id="text_18">
      <!-- 0.80 -->
      <g transform="translate(72.1025 235.585149)scale(0.12 -0.12)">
       <use xlink:href="#DejaVuSansMono-Bold-48"/>
       <use x="60.205078" xlink:href="#DejaVuSansMono-Bold-46"/>
       <use x="120.410156" xlink:href="#DejaVuSansMono-Bold-56"/>
       <use x="180.615234" xlink:href="#DejaVuSansMono-Bold-48"/>
      </g>
     </g>
    </g>
    <g id="ytick_10">
     <g id="line2d_18">
      <g>
       <use style="stroke:#000000;stroke-width:0.8;" x="108" xlink:href="#mbf897f1f0a" y="182.817391"/>
      </g>
     </g>
     <g id="text_19">
      <!-- 0.90 -->
      <g transform="translate(72.1025 187.376454)scale(0.12 -0.12)">
       <use xlink:href="#DejaVuSansMono-Bold-48"/>
       <use x="60.205078" xlink:href="#DejaVuSansMono-Bold-46"/>
       <use x="120.410156" xlink:href="#DejaVuSansMono-Bold-57"/>
       <use x="180.615234" xlink:href="#DejaVuSansMono-Bold-48"/>
      </g>
     </g>
    </g>
    <g id="ytick_11">
     <g id="line2d_19">
      <g>
       <use style="stroke:#000000;stroke-width:0.8;" x="108" xlink:href="#mbf897f1f0a" y="134.608696"/>
      </g>
     </g>
     <g id="text_20">
      <!-- 1.00 -->
      <g transform="translate(72.1025 139.167758)scale(0.12 -0.12)">
       <use xlink:href="#DejaVuSansMono-Bold-49"/>
       <use x="60.205078" xlink:href="#DejaVuSansMono-Bold-46"/>
       <use x="120.410156" xlink:href="#DejaVuSansMono-Bold-48"/>
       <use x="180.615234" xlink:href="#DejaVuSansMono-Bold-48"/>
      </g>
     </g>
    </g>
    <g id="text_21">
     <!-- FP Rate -->
     <defs>
      <path d="M 54.296875 60.203125 
L 23.296875 60.203125 
L 23.296875 44.484375 
L 51.515625 44.484375 
L 51.515625 31.78125 
L 23.296875 31.78125 
L 23.296875 0 
L 8.890625 0 
L 8.890625 72.90625 
L 54.296875 72.90625 
z
" id="DejaVuSansMono-Bold-70"/>
      <path d="M 22.3125 60.796875 
L 22.3125 39.40625 
L 28.21875 39.40625 
Q 35.296875 39.40625 38.15625 41.796875 
Q 41.015625 44.1875 41.015625 50.09375 
Q 41.015625 56 38.15625 58.390625 
Q 35.296875 60.796875 28.21875 60.796875 
z
M 7.90625 72.90625 
L 27.6875 72.90625 
Q 42.78125 72.90625 49.390625 67.53125 
Q 56 62.15625 56 50.09375 
Q 56 38.03125 49.390625 32.65625 
Q 42.78125 27.296875 27.6875 27.296875 
L 22.3125 27.296875 
L 22.3125 0 
L 7.90625 0 
z
" id="DejaVuSansMono-Bold-80"/>
      <path d="M 39.40625 34.421875 
Q 41.546875 33.984375 43.140625 32.390625 
Q 44.734375 30.8125 47.015625 26.21875 
L 60.203125 0 
L 44.390625 0 
L 35.59375 18.40625 
Q 35.203125 19.1875 34.578125 20.5625 
Q 30.71875 28.8125 25.484375 28.8125 
L 20.90625 28.8125 
L 20.90625 0 
L 6.5 0 
L 6.5 72.90625 
L 27.296875 72.90625 
Q 41.359375 72.90625 47.484375 67.921875 
Q 53.609375 62.9375 53.609375 51.703125 
Q 53.609375 44.1875 49.953125 39.734375 
Q 46.296875 35.296875 39.40625 34.421875 
z
M 20.90625 60.796875 
L 20.90625 40.921875 
L 27.6875 40.921875 
Q 33.59375 40.921875 36.15625 43.234375 
Q 38.71875 45.5625 38.71875 50.875 
Q 38.71875 56.203125 36.171875 58.5 
Q 33.640625 60.796875 27.6875 60.796875 
z
" id="DejaVuSansMono-Bold-82"/>
      <path d="M 33.6875 70.21875 
L 33.6875 54.6875 
L 52.390625 54.6875 
L 52.390625 43.703125 
L 33.6875 43.703125 
L 33.6875 17.828125 
Q 33.6875 14.15625 35.46875 12.5625 
Q 37.25 10.984375 41.40625 10.984375 
L 52.390625 10.984375 
L 52.390625 0 
L 40.375 0 
Q 28.078125 0 23.734375 3.921875 
Q 19.390625 7.859375 19.390625 18.5 
L 19.390625 43.703125 
L 5.421875 43.703125 
L 5.421875 54.6875 
L 19.390625 54.6875 
L 19.390625 70.21875 
z
" id="DejaVuSansMono-Bold-116"/>
     </defs>
     <g transform="translate(65.606875 388.885312)rotate(-90)scale(0.12 -0.12)">
      <use xlink:href="#DejaVuSansMono-Bold-70"/>
      <use x="60.205078" xlink:href="#DejaVuSansMono-Bold-80"/>
      <use x="120.410156" xlink:href="#DejaVuSansMono-Bold-32"/>
      <use x="180.615234" xlink:href="#DejaVuSansMono-Bold-82"/>
      <use x="240.820312" xlink:href="#DejaVuSansMono-Bold-97"/>
      <use x="301.025391" xlink:href="#DejaVuSansMono-Bold-116"/>
      <use x="361.230469" xlink:href="#DejaVuSansMono-Bold-101"/>
     </g>
    </g>
   </g>
   <g id="line2d_20">
    <path clip-path="url(#paec4fcbb09)" d="M -1 616.695652 
L 10.009756 616.695652 
L 26.341463 616.695652 
L 42.673171 616.695652 
L 59.004878 616.695652 
L 75.336585 616.695652 
L 91.668293 616.695652 
L 108 616.695652 
L 124.331707 616.695652 
L 140.663415 616.695652 
L 156.995122 616.695652 
L 173.326829 616.695652 
L 189.658537 616.695652 
L 205.990244 616.695652 
L 222.321951 616.695652 
L 238.653659 616.695652 
L 254.985366 616.695652 
L 271.317073 616.695652 
L 287.64878 616.695652 
L 303.980488 616.695652 
L 320.312195 616.695652 
L 336.643902 616.695652 
L 352.97561 616.695652 
L 369.307317 613.958809 
L 385.639024 612.268405 
L 401.970732 610.819488 
L 418.302439 609.290075 
L 434.634146 607.599672 
L 450.965854 605.909268 
L 467.297561 604.13837 
L 483.629268 602.045489 
L 499.960976 599.872113 
L 516.292683 493.376698 
L 532.62439 421.011332 
L 548.956098 386.961778 
L 565.287805 349.048444 
L 581.619512 213.252702 
L 597.95122 182.261973 
L 614.282927 182.100982 
L 630.614634 182.020487 
L 646.946341 181.939991 
L 663.278049 181.939991 
L 679.609756 181.698505 
L 695.941463 181.61801 
L 712.273171 181.135037 
L 728.604878 180.249588 
L 744.936585 179.042157 
L 761.268293 134.608696 
" style="fill:none;stroke:#1f77b4;stroke-linecap:square;stroke-width:2;"/>
   </g>
   <g id="line2d_21">
    <path clip-path="url(#paec4fcbb09)" d="M -1 616.695652 
L 10.009756 616.695652 
L 26.341463 616.695652 
L 42.673171 616.695652 
L 59.004878 616.695652 
L 75.336585 616.695652 
L 91.668293 616.695652 
L 108 616.695652 
L 124.331707 616.695652 
L 140.663415 616.695652 
L 156.995122 616.695652 
L 173.326829 616.695652 
L 189.658537 616.695652 
L 205.990244 616.695652 
L 222.321951 616.695652 
L 238.653659 616.695652 
L 254.985366 616.695652 
L 271.317073 616.695652 
L 287.64878 616.695652 
L 303.980488 614.745857 
L 320.312195 613.28351 
L 336.643902 612.308612 
L 352.97561 611.333714 
L 369.307317 610.358817 
L 385.639024 608.409021 
L 401.970732 606.946674 
L 418.302439 605.484328 
L 434.634146 604.021981 
L 450.965854 601.584736 
L 467.297561 599.634941 
L 483.629268 596.710248 
L 499.960976 593.785554 
L 516.292683 590.860861 
L 532.62439 587.448719 
L 548.956098 582.086781 
L 565.287805 561.613927 
L 581.619512 462.174353 
L 597.95122 404.655383 
L 614.282927 219.424803 
L 630.614634 177.504198 
L 646.946341 177.504198 
L 663.278049 177.504198 
L 679.609756 172.142261 
L 695.941463 166.780323 
L 712.273171 163.36818 
L 728.604878 154.5941 
L 744.936585 138.508287 
L 761.268293 134.608696 
" style="fill:none;stroke:#ff7f0e;stroke-linecap:square;stroke-width:2;"/>
   </g>
   <g id="line2d_22">
    <path clip-path="url(#paec4fcbb09)" d="M -1 616.695652 
L 10.009756 616.695652 
L 26.341463 616.695652 
L 42.673171 616.695652 
L 59.004878 616.695652 
L 75.336585 616.695652 
L 91.668293 616.695652 
L 108 616.695652 
L 124.331707 616.695652 
L 140.663415 616.695652 
L 156.995122 616.695652 
L 173.326829 616.695652 
L 189.658537 616.695652 
L 205.990244 616.695652 
L 222.321951 616.695652 
L 238.653659 616.695652 
L 254.985366 616.695652 
L 271.317073 616.695652 
L 287.64878 616.695652 
L 303.980488 616.695652 
L 320.312195 616.695652 
L 336.643902 616.695652 
L 352.97561 616.695652 
L 369.307317 616.695652 
L 385.639024 616.695652 
L 401.970732 616.695652 
L 418.302439 616.695652 
L 434.634146 616.695652 
L 450.965854 616.695652 
L 467.297561 616.695652 
L 483.629268 616.695652 
L 499.960976 616.695652 
L 516.292683 616.695652 
L 532.62439 616.695652 
L 548.956098 616.695652 
L 565.287805 616.695652 
L 581.619512 616.695652 
L 597.95122 616.695652 
L 614.282927 616.695652 
L 630.614634 616.695652 
L 646.946341 616.695652 
L 663.278049 616.695652 
L 679.609756 616.695652 
L 695.941463 616.695652 
L 712.273171 616.695652 
L 728.604878 616.453032 
L 744.936585 580.545196 
L 761.268293 134.608696 
" style="fill:none;stroke:#2ca02c;stroke-linecap:square;stroke-width:2;"/>
   </g>
   <g id="line2d_23">
    <path clip-path="url(#paec4fcbb09)" d="M 369.307317 613.958809 
" style="fill:none;stroke:#1f77b4;stroke-linecap:square;stroke-width:1.5;"/>
    <defs>
     <path d="M 0 3 
C 0.795609 3 1.55874 2.683901 2.12132 2.12132 
C 2.683901 1.55874 3 0.795609 3 0 
C 3 -0.795609 2.683901 -1.55874 2.12132 -2.12132 
C 1.55874 -2.683901 0.795609 -3 0 -3 
C -0.795609 -3 -1.55874 -2.683901 -2.12132 -2.12132 
C -2.683901 -1.55874 -3 -0.795609 -3 0 
C -3 0.795609 -2.683901 1.55874 -2.12132 2.12132 
C -1.55874 2.683901 -0.795609 3 0 3 
z
" id="m43384b4c0c" style="stroke:#1f77b4;"/>
    </defs>
    <g clip-path="url(#paec4fcbb09)">
     <use style="fill:#1f77b4;stroke:#1f77b4;" x="369.307317" xlink:href="#m43384b4c0c" y="613.958809"/>
    </g>
   </g>
   <g id="line2d_24">
    <path clip-path="url(#paec4fcbb09)" d="M 303.980488 614.745857 
" style="fill:none;stroke:#ff7f0e;stroke-linecap:square;stroke-width:1.5;"/>
    <defs>
     <path d="M 0 3 
C 0.795609 3 1.55874 2.683901 2.12132 2.12132 
C 2.683901 1.55874 3 0.795609 3 0 
C 3 -0.795609 2.683901 -1.55874 2.12132 -2.12132 
C 1.55874 -2.683901 0.795609 -3 0 -3 
C -0.795609 -3 -1.55874 -2.683901 -2.12132 -2.12132 
C -2.683901 -1.55874 -3 -0.795609 -3 0 
C -3 0.795609 -2.683901 1.55874 -2.12132 2.12132 
C -1.55874 2.683901 -0.795609 3 0 3 
z
" id="m8846bd0c3c" style="stroke:#ff7f0e;"/>
    </defs>
    <g clip-path="url(#paec4fcbb09)">
     <use style="fill:#ff7f0e;stroke:#ff7f0e;" x="303.980488" xlink:href="#m8846bd0c3c" y="614.745857"/>
    </g>
   </g>
   <g id="line2d_25">
    <path clip-path="url(#paec4fcbb09)" d="M 728.604878 616.453032 
" style="fill:none;stroke:#2ca02c;stroke-linecap:square;stroke-width:1.5;"/>
    <defs>
     <path d="M 0 3 
C 0.795609 3 1.55874 2.683901 2.12132 2.12132 
C 2.683901 1.55874 3 0.795609 3 0 
C 3 -0.795609 2.683901 -1.55874 2.12132 -2.12132 
C 1.55874 -2.683901 0.795609 -3 0 -3 
C -0.795609 -3 -1.55874 -2.683901 -2.12132 -2.12132 
C -2.683901 -1.55874 -3 -0.795609 -3 0 
C -3 0.795609 -2.683901 1.55874 -2.12132 2.12132 
C -1.55874 2.683901 -0.795609 3 0 3 
z
" id="m392583658c" style="stroke:#2ca02c;"/>
    </defs>
    <g clip-path="url(#paec4fcbb09)">
     <use style="fill:#2ca02c;stroke:#2ca02c;" x="728.604878" xlink:href="#m392583658c" y="616.453032"/>
    </g>
   </g>
   <g id="patch_3">
    <path d="M 108 640.8 
L 108 86.4 
" style="fill:none;stroke:#000000;stroke-linecap:square;stroke-linejoin:miter;stroke-width:0.8;"/>
   </g>
   <g id="patch_4">
    <path d="M 777.6 640.8 
L 777.6 86.4 
" style="fill:none;stroke:#000000;stroke-linecap:square;stroke-linejoin:miter;stroke-width:0.8;"/>
   </g>
   <g id="patch_5">
    <path d="M 108 640.8 
L 777.6 640.8 
" style="fill:none;stroke:#000000;stroke-linecap:square;stroke-linejoin:miter;stroke-width:0.8;"/>
   </g>
   <g id="patch_6">
    <path d="M 108 86.4 
L 777.6 86.4 
" style="fill:none;stroke:#000000;stroke-linecap:square;stroke-linejoin:miter;stroke-width:0.8;"/>
   </g>
   <g id="text_22">
    <!-- 0.76 -->
    <g transform="translate(377.473171 613.958809)scale(0.12 -0.12)">
     <use xlink:href="#DejaVuSansMono-Bold-48"/>
     <use x="60.205078" xlink:href="#DejaVuSansMono-Bold-46"/>
     <use x="120.410156" xlink:href="#DejaVuSansMono-Bold-55"/>
     <use x="180.615234" xlink:href="#DejaVuSansMono-Bold-54"/>
    </g>
   </g>
   <g id="text_23">
    <!-- 0.72 -->
    <g transform="translate(312.146341 614.745857)scale(0.12 -0.12)">
     <use xlink:href="#DejaVuSansMono-Bold-48"/>
     <use x="60.205078" xlink:href="#DejaVuSansMono-Bold-46"/>
     <use x="120.410156" xlink:href="#DejaVuSansMono-Bold-55"/>
     <use x="180.615234" xlink:href="#DejaVuSansMono-Bold-50"/>
    </g>
   </g>
   <g id="text_24">
    <!-- 0.98 -->
    <g transform="translate(736.770732 616.453032)scale(0.12 -0.12)">
     <use xlink:href="#DejaVuSansMono-Bold-48"/>
     <use x="60.205078" xlink:href="#DejaVuSansMono-Bold-46"/>
     <use x="120.410156" xlink:href="#DejaVuSansMono-Bold-57"/>
     <use x="180.615234" xlink:href="#DejaVuSansMono-Bold-56"/>
    </g>
   </g>
   <g id="text_25">
    <!-- MNIST - Ordered Datasets -->
    <defs>
     <path d="M 4.203125 72.90625 
L 21.390625 72.90625 
L 30.078125 40.921875 
L 38.71875 72.90625 
L 56 72.90625 
L 56 0 
L 43.609375 0 
L 43.609375 58.40625 
L 35.890625 26.515625 
L 24.421875 26.515625 
L 16.609375 58.40625 
L 16.609375 0 
L 4.203125 0 
z
" id="DejaVuSansMono-Bold-77"/>
     <path d="M 5.8125 72.90625 
L 21.296875 72.90625 
L 41.609375 19.921875 
L 41.609375 72.90625 
L 54.296875 72.90625 
L 54.296875 0 
L 38.921875 0 
L 18.5 52.984375 
L 18.5 0 
L 5.8125 0 
z
" id="DejaVuSansMono-Bold-78"/>
     <path d="M 8.40625 60.203125 
L 8.40625 72.90625 
L 51.8125 72.90625 
L 51.8125 60.203125 
L 37.3125 60.203125 
L 37.3125 12.703125 
L 51.8125 12.703125 
L 51.8125 0 
L 8.40625 0 
L 8.40625 12.703125 
L 22.90625 12.703125 
L 22.90625 60.203125 
z
" id="DejaVuSansMono-Bold-73"/>
     <path d="M 24.90625 31.984375 
Q 14.015625 36.140625 10.15625 40.703125 
Q 6.296875 45.265625 6.296875 52.984375 
Q 6.296875 62.890625 12.640625 68.546875 
Q 19 74.21875 30.078125 74.21875 
Q 35.109375 74.21875 40.140625 73.0625 
Q 45.171875 71.921875 50.09375 69.671875 
L 50.09375 55.609375 
Q 45.453125 58.890625 40.671875 60.59375 
Q 35.890625 62.3125 31.203125 62.3125 
Q 25.984375 62.3125 23.1875 60.203125 
Q 20.40625 58.109375 20.40625 54.203125 
Q 20.40625 51.171875 22.4375 49.1875 
Q 24.46875 47.21875 30.90625 44.828125 
L 37.109375 42.484375 
Q 45.90625 39.265625 50.046875 33.9375 
Q 54.203125 28.609375 54.203125 20.515625 
Q 54.203125 9.46875 47.671875 4.015625 
Q 41.15625 -1.421875 27.984375 -1.421875 
Q 22.5625 -1.421875 17.109375 -0.125 
Q 11.671875 1.171875 6.59375 3.71875 
L 6.59375 18.609375 
Q 12.359375 14.5 17.75 12.5 
Q 23.140625 10.5 28.421875 10.5 
Q 33.734375 10.5 36.65625 12.90625 
Q 39.59375 15.328125 39.59375 19.671875 
Q 39.59375 22.953125 37.640625 25.40625 
Q 35.6875 27.875 31.984375 29.296875 
z
" id="DejaVuSansMono-Bold-83"/>
     <path d="M 37.3125 0 
L 22.90625 0 
L 22.90625 60.296875 
L 4.390625 60.296875 
L 4.390625 72.90625 
L 55.8125 72.90625 
L 55.8125 60.296875 
L 37.3125 60.296875 
z
" id="DejaVuSansMono-Bold-84"/>
     <path d="M 14.703125 35.890625 
L 45.515625 35.890625 
L 45.515625 21.6875 
L 14.703125 21.6875 
z
" id="DejaVuSansMono-Bold-45"/>
     <path d="M 30.078125 61.28125 
Q 24.5625 61.28125 22.015625 55.390625 
Q 19.484375 49.515625 19.484375 36.375 
Q 19.484375 23.296875 22.015625 17.40625 
Q 24.5625 11.53125 30.078125 11.53125 
Q 35.640625 11.53125 38.171875 17.40625 
Q 40.71875 23.296875 40.71875 36.375 
Q 40.71875 49.515625 38.171875 55.390625 
Q 35.640625 61.28125 30.078125 61.28125 
z
M 4.5 36.375 
Q 4.5 55.078125 10.96875 64.640625 
Q 17.4375 74.21875 30.078125 74.21875 
Q 42.78125 74.21875 49.25 64.640625 
Q 55.71875 55.078125 55.71875 36.375 
Q 55.71875 17.71875 49.25 8.140625 
Q 42.78125 -1.421875 30.078125 -1.421875 
Q 17.4375 -1.421875 10.96875 8.140625 
Q 4.5 17.71875 4.5 36.375 
z
" id="DejaVuSansMono-Bold-79"/>
     <path d="M 56.203125 39.59375 
Q 53.859375 41.75 50.703125 42.8125 
Q 47.5625 43.890625 43.796875 43.890625 
Q 39.265625 43.890625 35.859375 42.296875 
Q 32.46875 40.71875 30.609375 37.703125 
Q 29.4375 35.84375 28.96875 33.203125 
Q 28.515625 30.5625 28.515625 25.203125 
L 28.515625 0 
L 14.203125 0 
L 14.203125 54.6875 
L 28.515625 54.6875 
L 28.515625 46.1875 
Q 30.609375 50.875 34.953125 53.4375 
Q 39.3125 56 45.125 56 
Q 48.046875 56 50.84375 55.296875 
Q 53.65625 54.59375 56.203125 53.21875 
z
" id="DejaVuSansMono-Bold-114"/>
     <path d="M 38.625 46.921875 
L 38.625 75.984375 
L 52.875 75.984375 
L 52.875 0 
L 38.625 0 
L 38.625 8.109375 
Q 36.328125 3.375 32.6875 0.96875 
Q 29.046875 -1.421875 24.125 -1.421875 
Q 14.75 -1.421875 9.5625 6.09375 
Q 4.390625 13.625 4.390625 27.296875 
Q 4.390625 41.15625 9.640625 48.578125 
Q 14.890625 56 24.609375 56 
Q 29 56 32.484375 53.734375 
Q 35.984375 51.46875 38.625 46.921875 
z
M 18.703125 27.203125 
Q 18.703125 19.28125 21.328125 14.78125 
Q 23.96875 10.296875 28.609375 10.296875 
Q 33.25 10.296875 35.9375 14.78125 
Q 38.625 19.28125 38.625 27.203125 
Q 38.625 35.109375 35.9375 39.59375 
Q 33.25 44.09375 28.609375 44.09375 
Q 23.96875 44.09375 21.328125 39.59375 
Q 18.703125 35.109375 18.703125 27.203125 
z
" id="DejaVuSansMono-Bold-100"/>
     <path d="M 21.09375 59.90625 
L 21.09375 12.984375 
L 25 12.984375 
Q 33.5 12.984375 37.109375 18.328125 
Q 40.71875 23.6875 40.71875 36.53125 
Q 40.71875 49.265625 37.109375 54.578125 
Q 33.5 59.90625 25 59.90625 
z
M 6.6875 72.90625 
L 22.125 72.90625 
Q 39.984375 72.90625 47.84375 64.375 
Q 55.71875 55.859375 55.71875 36.53125 
Q 55.71875 17.140625 47.84375 8.5625 
Q 39.984375 0 22.125 0 
L 6.6875 0 
z
" id="DejaVuSansMono-Bold-68"/>
     <path d="M 48.390625 52.984375 
L 48.390625 40.484375 
Q 44.4375 43.015625 40.15625 44.3125 
Q 35.890625 45.609375 31.59375 45.609375 
Q 26.8125 45.609375 24.359375 44.21875 
Q 21.921875 42.828125 21.921875 40.09375 
Q 21.921875 36.1875 32.375 33.734375 
L 32.90625 33.59375 
L 37.015625 32.625 
Q 44.828125 30.765625 48.453125 26.640625 
Q 52.09375 22.515625 52.09375 15.484375 
Q 52.09375 7.03125 46.546875 2.796875 
Q 41.015625 -1.421875 29.890625 -1.421875 
Q 24.953125 -1.421875 19.765625 -0.5625 
Q 14.59375 0.296875 9.28125 2 
L 9.28125 14.5 
Q 14.015625 11.8125 18.921875 10.390625 
Q 23.828125 8.984375 28.421875 8.984375 
Q 33.453125 8.984375 36.03125 10.453125 
Q 38.625 11.921875 38.625 14.703125 
Q 38.625 17.4375 36.796875 18.890625 
Q 34.96875 20.359375 28.078125 22.015625 
L 24.125 22.90625 
Q 15.921875 24.75 12.15625 28.703125 
Q 8.40625 32.671875 8.40625 39.3125 
Q 8.40625 47.21875 14.109375 51.609375 
Q 19.828125 56 30.171875 56 
Q 34.8125 56 39.421875 55.25 
Q 44.046875 54.5 48.390625 52.984375 
z
" id="DejaVuSansMono-Bold-115"/>
    </defs>
    <g transform="translate(341.65875 80.4)scale(0.14 -0.14)">
     <use xlink:href="#DejaVuSansMono-Bold-77"/>
     <use x="60.205078" xlink:href="#DejaVuSansMono-Bold-78"/>
     <use x="120.410156" xlink:href="#DejaVuSansMono-Bold-73"/>
     <use x="180.615234" xlink:href="#DejaVuSansMono-Bold-83"/>
     <use x="240.820312" xlink:href="#DejaVuSansMono-Bold-84"/>
     <use x="301.025391" xlink:href="#DejaVuSansMono-Bold-32"/>
     <use x="361.230469" xlink:href="#DejaVuSansMono-Bold-45"/>
     <use x="421.435547" xlink:href="#DejaVuSansMono-Bold-32"/>
     <use x="481.640625" xlink:href="#DejaVuSansMono-Bold-79"/>
     <use x="541.845703" xlink:href="#DejaVuSansMono-Bold-114"/>
     <use x="602.050781" xlink:href="#DejaVuSansMono-Bold-100"/>
     <use x="662.255859" xlink:href="#DejaVuSansMono-Bold-101"/>
     <use x="722.460938" xlink:href="#DejaVuSansMono-Bold-114"/>
     <use x="782.666016" xlink:href="#DejaVuSansMono-Bold-101"/>
     <use x="842.871094" xlink:href="#DejaVuSansMono-Bold-100"/>
     <use x="903.076172" xlink:href="#DejaVuSansMono-Bold-32"/>
     <use x="963.28125" xlink:href="#DejaVuSansMono-Bold-68"/>
     <use x="1023.486328" xlink:href="#DejaVuSansMono-Bold-97"/>
     <use x="1083.691406" xlink:href="#DejaVuSansMono-Bold-116"/>
     <use x="1143.896484" xlink:href="#DejaVuSansMono-Bold-97"/>
     <use x="1204.101562" xlink:href="#DejaVuSansMono-Bold-115"/>
     <use x="1264.306641" xlink:href="#DejaVuSansMono-Bold-101"/>
     <use x="1324.511719" xlink:href="#DejaVuSansMono-Bold-116"/>
     <use x="1384.716797" xlink:href="#DejaVuSansMono-Bold-115"/>
    </g>
   </g>
   <g id="legend_1">
    <g id="patch_7">
     <path d="M 116.4 148.84125 
L 183.6975 148.84125 
Q 186.0975 148.84125 186.0975 146.44125 
L 186.0975 94.8 
Q 186.0975 92.4 183.6975 92.4 
L 116.4 92.4 
Q 114 92.4 114 94.8 
L 114 146.44125 
Q 114 148.84125 116.4 148.84125 
z
" style="fill:#ffffff;opacity:0.8;stroke:#cccccc;stroke-linejoin:miter;"/>
    </g>
    <g id="line2d_26">
     <path d="M 118.8 102.118125 
L 142.8 102.118125 
" style="fill:none;stroke:#1f77b4;stroke-linecap:square;stroke-width:2;"/>
    </g>
    <g id="line2d_27"/>
    <g id="text_26">
     <!-- OD -->
     <g transform="translate(152.4 106.318125)scale(0.12 -0.12)">
      <use xlink:href="#DejaVuSansMono-Bold-79"/>
      <use x="60.205078" xlink:href="#DejaVuSansMono-Bold-68"/>
     </g>
    </g>
    <g id="line2d_28">
     <path d="M 118.8 119.731875 
L 142.8 119.731875 
" style="fill:none;stroke:#ff7f0e;stroke-linecap:square;stroke-width:2;"/>
    </g>
    <g id="line2d_29"/>
    <g id="text_27">
     <!-- TD -->
     <g transform="translate(152.4 123.931875)scale(0.12 -0.12)">
      <use xlink:href="#DejaVuSansMono-Bold-84"/>
      <use x="60.205078" xlink:href="#DejaVuSansMono-Bold-68"/>
     </g>
    </g>
    <g id="line2d_30">
     <path d="M 118.8 137.345625 
L 142.8 137.345625 
" style="fill:none;stroke:#2ca02c;stroke-linecap:square;stroke-width:2;"/>
    </g>
    <g id="line2d_31"/>
    <g id="text_28">
     <!-- USPS -->
     <defs>
      <path d="M 5.171875 26.90625 
L 5.171875 72.90625 
L 19.578125 72.90625 
L 19.578125 23.296875 
Q 19.578125 17.828125 22.359375 14.71875 
Q 25.140625 11.625 30.078125 11.625 
Q 35.015625 11.625 37.796875 14.71875 
Q 40.578125 17.828125 40.578125 23.296875 
L 40.578125 72.90625 
L 54.984375 72.90625 
L 54.984375 26.90625 
Q 54.984375 12.0625 49.078125 5.3125 
Q 43.171875 -1.421875 30.078125 -1.421875 
Q 17.046875 -1.421875 11.109375 5.3125 
Q 5.171875 12.0625 5.171875 26.90625 
z
" id="DejaVuSansMono-Bold-85"/>
     </defs>
     <g transform="translate(152.4 141.545625)scale(0.12 -0.12)">
      <use xlink:href="#DejaVuSansMono-Bold-85"/>
      <use x="60.205078" xlink:href="#DejaVuSansMono-Bold-83"/>
      <use x="120.410156" xlink:href="#DejaVuSansMono-Bold-80"/>
      <use x="180.615234" xlink:href="#DejaVuSansMono-Bold-83"/>
     </g>
    </g>
   </g>
  </g>
 </g>
 <defs>
  <clipPath id="paec4fcbb09">
   <rect height="554.4" width="669.6" x="108" y="86.4"/>
  </clipPath>
 </defs>
</svg>
